<?xml version="1.0" encoding="utf-8"?>
<!-- Generator: Adobe Illustrator 16.0.0, SVG Export Plug-In . SVG Version: 6.00 Build 0)  -->
<!DOCTYPE svg PUBLIC "-//W3C//DTD SVG 1.1//EN" "http://www.w3.org/Graphics/SVG/1.1/DTD/svg11.dtd">
<svg version="1.1" xmlns="http://www.w3.org/2000/svg" xmlns:xlink="http://www.w3.org/1999/xlink" x="0px" y="0px" width="800px"
	 height="173px" viewBox="0 0 800 173" enable-background="new 0 0 800 173" xml:space="preserve">
<g id="圖層_3">
</g>
<g id="圖層_1">
	<g>
		<g>
			<g>
				<g>
					<path fill="#FFFFFF" d="M741.896,147.771c-1.129,0-2.041-0.918-2.041-2.048v-33.154c0-1.122,0.912-2.041,2.041-2.041
						s2.041,0.919,2.041,2.041v33.154C743.938,146.854,743.025,147.771,741.896,147.771z"/>
					<path fill="#FFFFFF" d="M760.807,147.982c-1.115,0-2.041-0.919-2.041-2.034v-33.155c0-1.129,0.926-2.054,2.041-2.054
						s2.041,0.925,2.041,2.054v33.155C762.848,147.063,761.922,147.982,760.807,147.982z"/>
					<path fill="#FFFFFF" d="M760.316,129.895h-18.094c-1.115,0-2.041-0.912-2.041-2.041c0-1.122,0.926-2.033,2.041-2.033h18.094
						c1.115,0,2.041,0.911,2.041,2.033C762.357,128.982,761.432,129.895,760.316,129.895z"/>
				</g>
				<g>
					<path fill="#FFFFFF" d="M298.822,147.771c-1.115,0-2.027-0.918-2.027-2.048v-33.154c0-1.122,0.912-2.041,2.027-2.041
						c1.143,0,2.041,0.919,2.041,2.041v33.154C300.863,146.854,299.965,147.771,298.822,147.771z"/>
					<path fill="#FFFFFF" d="M317.746,147.982c-1.115,0-2.041-0.919-2.041-2.034v-33.155c0-1.129,0.926-2.054,2.041-2.054
						c1.129,0,2.041,0.925,2.041,2.054v33.155C319.787,147.063,318.875,147.982,317.746,147.982z"/>
					<path fill="#FFFFFF" d="M317.257,129.895h-18.095c-1.129,0-2.026-0.912-2.026-2.041c0-1.122,0.897-2.033,2.026-2.033h18.095
						c1.129,0,2.04,0.911,2.04,2.033C319.297,128.982,318.386,129.895,317.257,129.895z"/>
				</g>
				<g>
					<path fill="#FFFFFF" d="M336.371,132.071c-0.722,0-1.388-0.388-1.755-1.014l-9.823-16.802c-0.571-0.966-0.23-2.217,0.735-2.789
						c0.979-0.57,2.23-0.238,2.789,0.734l8.04,13.769l7.904-13.761c0.571-0.973,1.823-1.313,2.789-0.748
						c0.966,0.57,1.319,1.803,0.748,2.781l-9.659,16.809C337.772,131.684,337.105,132.071,336.371,132.071L336.371,132.071z"/>
					<path fill="#FFFFFF" d="M336.371,147.41c-1.129,0-2.041-0.911-2.041-2.04v-15.333c0-1.122,0.912-2.041,2.041-2.041
						s2.041,0.919,2.041,2.041v15.333C338.412,146.499,337.5,147.41,336.371,147.41z"/>
				</g>
				<g>
					<path fill="#FFFFFF" d="M356.669,147.499c-1.129,0-2.041-0.905-2.041-2.034v-32.59c0-1.102,0.885-2.02,2-2.041
						c0.068,0,6-0.108,10.816,0c4.625,0.116,8.244,3.945,8.244,8.734c0,5.851-3.456,9.796-8.599,9.796h-8.38v16.101
						C358.71,146.594,357.798,147.499,356.669,147.499z M358.71,125.283h8.38c4.082,0,4.517-4,4.517-5.715
						c0-2.843-2.163-4.598-4.258-4.659c-3.021-0.054-6.503-0.048-8.639-0.021V125.283z"/>
				</g>
				<g>
					<path fill="#FFFFFF" d="M460.336,147.186h-11.687c-1.129,0-2.04-0.918-2.04-2.04v-33.298c0-1.122,0.911-2.033,2.04-2.033h12.04
						c5.415,0,9.061,9.476,9.061,18.325C469.75,136.922,467.288,147.186,460.336,147.186z M450.677,143.104h9.659
						c3.034,0,5.347-6.435,5.347-14.965c0-8.088-3.333-14.251-4.993-14.251h-10.013V143.104z"/>
				</g>
				<g>
					<path fill="#FFFFFF" d="M703.83,146.594h-15.195c-2.531,0-5.225-2.013-5.225-5.026v-26.502c0-2.599,1.932-4.626,4.408-4.626
						h16.012c1.129,0,2.041,0.912,2.041,2.035c0,1.121-0.912,2.04-2.041,2.04h-16.012c-0.219,0-0.34,0.218-0.34,0.551v26.502
						c0,0.538,0.707,0.945,1.156,0.945h15.195c1.129,0,2.041,0.911,2.041,2.041C705.871,145.683,704.959,146.594,703.83,146.594z"/>
					<path fill="#FFFFFF" d="M700.117,129.404h-7.877c-1.131,0-2.055-0.918-2.055-2.04c0-1.13,0.924-2.04,2.055-2.04h7.877
						c1.129,0,2.039,0.91,2.039,2.04C702.156,128.486,701.246,129.404,700.117,129.404z"/>
				</g>
				<g>
					<path fill="#FFFFFF" d="M400.789,146.594h-15.21c-2.518,0-5.225-2.013-5.225-5.026v-26.502c0-2.599,1.932-4.626,4.408-4.626
						h16.026c1.129,0,2.04,0.912,2.04,2.035c0,1.121-0.911,2.04-2.04,2.04h-16.026c-0.204,0-0.327,0.218-0.327,0.551v26.502
						c0,0.538,0.694,0.945,1.144,0.945h15.21c1.129,0,2.04,0.911,2.04,2.041C402.829,145.683,401.918,146.594,400.789,146.594z"/>
					<path fill="#FFFFFF" d="M397.074,129.404h-7.891c-1.129,0-2.04-0.918-2.04-2.04c0-1.13,0.911-2.04,2.04-2.04h7.891
						c1.116,0,2.041,0.91,2.041,2.04C399.115,128.486,398.19,129.404,397.074,129.404z"/>
				</g>
				<g>
					<path fill="#FFFFFF" d="M409.836,147.336c-1.115,0-2.027-0.912-2.027-2.048V112.08c0-1.116,0.885-2.021,2-2.041
						c0.068,0,6.666-0.116,11.985,0c5.007,0.108,8.938,4.006,8.938,8.863c0,5.938-3.741,9.938-9.319,9.938h-9.523v16.448
						C411.89,146.424,410.965,147.336,409.836,147.336z M411.89,124.766h9.523c4.734,0,5.252-4.102,5.252-5.863
						c0-2.926-2.531-4.741-4.966-4.782c-3.456-0.075-7.469-0.054-9.81-0.034V124.766z"/>
					<path fill="#FFFFFF" d="M427.767,147.336c-0.734,0-1.442-0.408-1.81-1.115l-6.788-13.374c-0.504-1-0.109-2.237,0.897-2.741
						c1.007-0.51,2.231-0.096,2.734,0.904l6.789,13.36c0.503,1,0.108,2.231-0.898,2.741
						C428.406,147.268,428.093,147.336,427.767,147.336z"/>
				</g>
				<g>
					<path fill="#FFFFFF" d="M492.157,114.134h-13.346c-1.13,0-2.041-0.911-2.041-2.04c0-1.123,0.911-2.035,2.041-2.035h13.346
						c1.115,0,2.041,0.912,2.041,2.035C494.198,113.223,493.272,114.134,492.157,114.134z"/>
					<path fill="#FFFFFF" d="M492.157,146.302h-13.346c-1.13,0-2.041-0.919-2.041-2.04c0-1.123,0.911-2.041,2.041-2.041h13.346
						c1.115,0,2.041,0.918,2.041,2.041C494.198,145.383,493.272,146.302,492.157,146.302z"/>
					<path fill="#FFFFFF" d="M485.478,145.975c-1.129,0-2.041-0.904-2.041-2.04v-31.495c0-1.122,0.912-2.04,2.041-2.04
						s2.041,0.918,2.041,2.04v31.495C487.519,145.07,486.606,145.975,485.478,145.975z"/>
				</g>
				<g>
					<path fill="#FFFFFF" d="M547.582,114.134h-13.346c-1.13,0-2.055-0.911-2.055-2.04c0-1.123,0.925-2.035,2.055-2.035h13.346
						c1.115,0,2.041,0.912,2.041,2.035C549.623,113.223,548.697,114.134,547.582,114.134z"/>
					<path fill="#FFFFFF" d="M547.582,146.302h-13.346c-1.13,0-2.055-0.919-2.055-2.04c0-1.123,0.925-2.041,2.055-2.041h13.346
						c1.115,0,2.041,0.918,2.041,2.041C549.623,145.383,548.697,146.302,547.582,146.302z"/>
					<path fill="#FFFFFF" d="M540.902,145.975c-1.129,0-2.041-0.904-2.041-2.04v-31.495c0-1.122,0.912-2.04,2.041-2.04
						s2.041,0.918,2.041,2.04v31.495C542.943,145.07,542.031,145.975,540.902,145.975z"/>
				</g>
				<g>
					<path fill="#FFFFFF" d="M637.957,147.207h-18.313c-1.129,0-2.039-0.919-2.039-2.048v-34.358c0-1.137,0.91-2.048,2.039-2.048
						c1.117,0,2.027,0.911,2.027,2.048v32.324h16.285c1.129,0,2.041,0.918,2.041,2.034
						C639.998,146.288,639.086,147.207,637.957,147.207z"/>
				</g>
				<g>
					<path fill="#FFFFFF" d="M676.104,114.882h-21.291c-1.129,0-2.041-0.918-2.041-2.04c0-1.13,0.912-2.034,2.041-2.034h21.291
						c1.131,0,2.041,0.904,2.041,2.034C678.145,113.964,677.234,114.882,676.104,114.882z"/>
					<path fill="#FFFFFF" d="M665.465,146.866c-1.129,0-2.039-0.904-2.039-2.026l-0.041-31.747c0-1.122,0.91-2.026,2.039-2.034l0,0
						c1.131,0,2.041,0.912,2.041,2.034l0.041,31.739C667.506,145.955,666.582,146.866,665.465,146.866L665.465,146.866z"/>
				</g>
				<g>
					<path fill="#FFFFFF" d="M579.838,114.882h-21.305c-1.129,0-2.027-0.918-2.027-2.04c0-1.13,0.898-2.034,2.027-2.034h21.305
						c1.129,0,2.041,0.904,2.041,2.034C581.879,113.964,580.967,114.882,579.838,114.882z"/>
					<path fill="#FFFFFF" d="M569.186,146.866c-1.129,0-2.041-0.911-2.041-2.034v-31.324c0-1.136,0.912-2.041,2.041-2.041
						s2.041,0.905,2.041,2.041v31.324C571.227,145.955,570.314,146.866,569.186,146.866z"/>
				</g>
				<g>
					<path fill="#FFFFFF" d="M513.911,147.118c-8.177,0-11.904-9.53-11.904-18.38c0-10.687,5.225-19.066,11.904-19.066
						c5.02,0,8.884,4.381,9.618,10.883c0.122,1.116-0.681,2.129-1.81,2.259c-1.115,0.122-2.122-0.687-2.244-1.796
						c-0.49-4.347-2.722-7.258-5.564-7.258c-3.782,0-7.823,6.02-7.823,14.979c0,7.108,2.681,14.305,7.823,14.305
						c2.639,0,5.687-2.326,6.217-8.707h-7.129c-1.115,0-2.04-0.911-2.04-2.04c0-1.122,0.925-2.034,2.04-2.034h9.252
						c1.115,0,2.04,0.912,2.04,2.034C524.291,143.24,518.687,147.118,513.911,147.118z"/>
				</g>
				<g>
					<path fill="#FFFFFF" d="M723.748,147.369c-8.189,0-11.918-9.522-11.918-18.379c0-10.693,5.238-19.067,11.918-19.067
						c5.006,0,8.883,4.367,9.617,10.877c0.109,1.122-0.693,2.136-1.809,2.259c-1.102,0.129-2.123-0.688-2.258-1.796
						c-0.477-4.347-2.721-7.259-5.551-7.259c-3.783,0-7.836,6.021-7.836,14.986c0,7.107,2.693,14.305,7.836,14.305
						c4.775,0,6.027-5.727,6.354-9.143c0.107-1.108,1.074-1.938,2.217-1.829c1.115,0.108,1.945,1.102,1.836,2.218
						C733.039,146.451,725.91,147.369,723.748,147.369z"/>
				</g>
				<g>
					<path fill="#FFFFFF" d="M606.041,148.566c-0.939,0-1.783-0.646-1.986-1.598l-7.361-34.113h-0.34l-6.326,34.052
						c-0.203,1.108-1.277,1.837-2.381,1.632c-1.102-0.21-1.836-1.271-1.631-2.373l6.639-35.713c0.176-0.973,1.02-1.666,2-1.666
						h3.686c0.953,0,1.797,0.666,2,1.605l7.701,35.712c0.23,1.103-0.463,2.184-1.564,2.422
						C606.326,148.561,606.189,148.566,606.041,148.566z"/>
					<path fill="#FFFFFF" d="M602.639,132.615h-10.57c-1.129,0-2.041-0.918-2.041-2.041c0-1.121,0.912-2.033,2.041-2.033h10.57
						c1.131,0,2.041,0.912,2.041,2.033C604.68,131.697,603.77,132.615,602.639,132.615z"/>
				</g>
			</g>
			<g>
				<path fill="#FFFFFF" d="M345.69,27.111h-46.786c-1.408,0-2.552-1.143-2.552-2.551s1.144-2.551,2.552-2.551h46.786
					c1.408,0,2.551,1.143,2.551,2.551S347.099,27.111,345.69,27.111z"/>
				<path fill="#FFFFFF" d="M494.198,39.513h-30.229c-1.401,0-2.544-1.144-2.544-2.552c0-1.407,1.143-2.551,2.544-2.551h30.229
					c1.408,0,2.551,1.144,2.551,2.551C496.749,38.369,495.606,39.513,494.198,39.513z"/>
				<path fill="#FFFFFF" d="M492.804,73.885H465.37c-1.415,0-2.558-1.137-2.558-2.545s1.143-2.551,2.558-2.551h27.434
					c1.414,0,2.558,1.143,2.558,2.551S494.218,73.885,492.804,73.885z"/>
				<path fill="#FFFFFF" d="M402.544,32.078h-15.741c-1.414,0-2.551-1.144-2.551-2.551c0-1.408,1.137-2.551,2.551-2.551h15.741
					c1.408,0,2.558,1.143,2.558,2.551C405.102,30.935,403.952,32.078,402.544,32.078z"/>
				<path fill="#FFFFFF" d="M634.971,37.662c-1.115,0-2.143-0.734-2.455-1.863c-0.381-1.354,0.408-2.762,1.762-3.143
					c4.332-1.219,10.998-5.109,13.107-8.307c0.775-1.176,2.354-1.496,3.531-0.721c1.176,0.77,1.502,2.354,0.721,3.531
					c-2.863,4.346-10.57,8.891-15.979,10.406C635.426,37.629,635.195,37.662,634.971,37.662z"/>
				<path fill="#FFFFFF" d="M468.022,92.604c-1.122,0-2.156-0.749-2.462-1.884c-0.367-1.361,0.435-2.762,1.789-3.129
					c6.23-1.688,10.598-4.43,13.747-8.64c1.605-2.136,2.592-5.245,3.34-8.007c0.374-1.354,1.782-2.148,3.143-1.789
					c1.354,0.368,2.156,1.775,1.782,3.137c-0.87,3.217-2.054,6.897-4.177,9.727c-3.877,5.156-9.115,8.496-16.495,10.49
					C468.472,92.577,468.24,92.604,468.022,92.604z"/>
				<path fill="#FFFFFF" d="M405.108,46.805h-22.264c-1.408,0-2.552-1.15-2.552-2.558c0-1.408,1.144-2.552,2.552-2.552h22.264
					c1.408,0,2.551,1.144,2.551,2.552C407.659,45.654,406.517,46.805,405.108,46.805z"/>
				<path fill="#FFFFFF" d="M651.283,52.402H634.57c-1.408,0-2.545-1.148-2.545-2.557s1.137-2.545,2.545-2.545h16.713
					c1.408,0,2.543,1.137,2.543,2.545S652.691,52.402,651.283,52.402z"/>
				<path fill="#FFFFFF" d="M417.203,81.189h-20.482c-1.408,0-2.544-1.148-2.544-2.557s1.136-2.551,2.544-2.551h20.482
					c1.414,0,2.558,1.143,2.558,2.551S418.617,81.189,417.203,81.189z"/>
				<path fill="#FFFFFF" d="M732.162,45.995h-13.408c-1.408,0-2.551-1.144-2.551-2.544c0-1.408,1.143-2.551,2.551-2.551h13.408
					c1.414,0,2.551,1.143,2.551,2.551C734.713,44.852,733.576,45.995,732.162,45.995z"/>
				<path fill="#FFFFFF" d="M718.57,71.429c-0.863,0-1.707-0.435-2.189-1.231c-0.721-1.211-0.34-2.781,0.871-3.503
					c4.4-2.659,10.148-7.394,12.148-9.693c0.926-1.067,2.537-1.184,3.605-0.251c1.061,0.925,1.17,2.529,0.244,3.598
					c-2.592,2.973-8.836,7.979-13.365,10.714C719.477,71.307,719.02,71.429,718.57,71.429z"/>
				<path fill="#FFFFFF" d="M680.342,76.021h-24.705c-1.408,0-2.551-1.144-2.551-2.551c0-1.415,1.143-2.552,2.551-2.552h24.705
					c1.416,0,2.559,1.137,2.559,2.552C682.9,74.877,681.758,76.021,680.342,76.021z"/>
				<path fill="#FFFFFF" d="M595.375,47.076h-29.447c-1.408,0-2.551-1.143-2.551-2.551s1.143-2.551,2.551-2.551h29.447
					c1.408,0,2.551,1.143,2.551,2.551S596.783,47.076,595.375,47.076z"/>
				<path fill="#FFFFFF" d="M596.252,87.938h-31.201c-1.408,0-2.545-1.143-2.545-2.557c0-1.408,1.137-2.551,2.545-2.551h31.201
					c1.408,0,2.551,1.143,2.551,2.551C598.803,86.795,597.66,87.938,596.252,87.938z"/>
				<path fill="#FFFFFF" d="M759.113,36.758h-18.449c-1.414,0-2.557-1.143-2.557-2.551s1.143-2.551,2.557-2.551h18.449
					c1.408,0,2.551,1.143,2.551,2.551S760.521,36.758,759.113,36.758z"/>
				<path fill="#FFFFFF" d="M739.85,90.815c-0.525,0-1.055-0.163-1.504-0.489c-1.137-0.838-1.381-2.436-0.551-3.572
					c6.434-8.802,14.625-21.297,18.283-29.916c0.654-1.518,0.75-2.918,0.26-3.666c-0.43-0.646-1.367-0.783-2.074-0.783h-14.008
					c-1.406,0-2.551-1.135-2.551-2.543s1.145-2.559,2.551-2.559h14.008c2.775,0,5.02,1.089,6.326,3.068
					c1.469,2.23,1.537,5.319,0.197,8.482c-3.852,9.02-12.271,21.89-18.877,30.93C741.414,90.455,740.631,90.815,739.85,90.815z"/>
				<path fill="#FFFFFF" d="M338.874,68.246h-33.147c-1.408,0-2.558-1.144-2.558-2.552c0-1.415,1.149-2.558,2.558-2.558h33.147
					c1.408,0,2.551,1.143,2.551,2.558C341.425,67.103,340.282,68.246,338.874,68.246z"/>
				<path fill="#FFFFFF" d="M342.085,76.918h-39.563c-1.408,0-2.558-1.136-2.558-2.551c0-1.408,1.149-2.551,2.558-2.551h39.563
					c1.408,0,2.544,1.143,2.544,2.551C344.629,75.782,343.493,76.918,342.085,76.918z"/>
				<path fill="#FFFFFF" d="M307.624,92.822c-3.061,0-4.87-1.701-5.523-3.334c-1.026-2.543,0.116-5.523,2.837-7.4
					c4.34-3.006,13.911-9.57,13.911-9.57l2.891,4.203c0,0-9.564,6.564-13.897,9.564c-0.85,0.592-1.033,1.163-1.007,1.307
					c0.041,0.02,0.477,0.224,1.449,0.067c1.319-0.211,7.19-1.544,12.87-2.843c6.258-1.43,12.727-2.905,16.121-3.578
					c3.279-0.66,6.238,1.51,7.211,3.992c0.564,1.442,1.626,3.939,1.626,3.939l-4.694,2.006c0,0-1.095-2.592-1.687-4.081
					c-0.163-0.422-0.871-0.973-1.456-0.851c-3.326,0.66-10.047,2.19-15.985,3.544c-6.278,1.436-11.707,2.667-13.196,2.911
					C308.57,92.788,308.08,92.822,307.624,92.822z"/>
				<path fill="#FFFFFF" d="M383.776,64.565c-0.775,0-1.551-0.36-2.048-1.041c-0.837-1.136-0.599-2.728,0.537-3.564
					c1.796-1.326,4.49-4.163,5.952-6.85c1.585-2.897,4.231-8.469,4.231-13.271v-8.931c0-1.408,1.149-2.551,2.558-2.551
					s2.544,1.143,2.544,2.551v8.931c0,5.64-2.633,11.659-4.85,15.714c-1.919,3.523-5.19,6.883-7.408,8.516
					C384.83,64.402,384.307,64.565,383.776,64.565z"/>
				<path fill="#FFFFFF" d="M643.65,92.196c-1.408,0-2.551-1.143-2.551-2.551V31.608c0-1.408,1.143-2.552,2.551-2.552
					c1.414,0,2.559,1.144,2.559,2.552v58.037C646.209,91.054,645.064,92.196,643.65,92.196z"/>
				<path fill="#FFFFFF" d="M557.656,91.217c-1.408,0-2.551-1.143-2.551-2.558V41.063c0-1.408,1.143-2.544,2.551-2.544
					c1.414,0,2.551,1.136,2.551,2.544v47.596C560.207,90.074,559.07,91.217,557.656,91.217z"/>
				<path fill="#FFFFFF" d="M548.99,50.254c-0.912,0-1.797-0.49-2.252-1.348c-0.666-1.244-0.197-2.789,1.047-3.455
					c6.605-3.537,11.408-10.571,11.408-16.713c0-1.416,1.143-2.559,2.543-2.559c1.416,0,2.559,1.143,2.559,2.559
					c0,8.047-5.795,16.768-14.102,21.209C549.807,50.151,549.398,50.254,548.99,50.254z"/>
				<path fill="#FFFFFF" d="M750.324,52.029c-1.408,0-2.545-1.137-2.545-2.545v-23.76c0-1.408,1.137-2.551,2.545-2.551
					s2.551,1.143,2.551,2.551v23.76C752.875,50.893,751.732,52.029,750.324,52.029z"/>
				<path fill="#FFFFFF" d="M725.584,92.013c-0.359,0-0.721-0.081-1.061-0.231l-5.564-2.551c-1.285-0.585-1.844-2.102-1.258-3.388
					c0.584-1.278,2.094-1.837,3.381-1.259l1.951,0.898V26.139c0-1.408,1.137-2.551,2.551-2.551c1.408,0,2.551,1.143,2.551,2.551
					v63.323c0,0.87-0.441,1.673-1.17,2.143C726.551,91.877,726.066,92.013,725.584,92.013z"/>
				<path fill="#FFFFFF" d="M673.928,92.305c-1.408,0-2.545-1.143-2.545-2.551V25.466c0-1.415,1.137-2.551,2.545-2.551
					s2.551,1.136,2.551,2.551v64.288C676.479,91.162,675.336,92.305,673.928,92.305z"/>
				<path fill="#FFFFFF" d="M574.92,85.469c-1.32,0-2.436-1.021-2.537-2.36l-2.877-37.767c-0.102-1.408,0.951-2.633,2.354-2.741
					c1.408-0.116,2.625,0.946,2.74,2.347l2.871,37.78c0.102,1.401-0.945,2.626-2.354,2.734
					C575.049,85.469,574.988,85.469,574.92,85.469z"/>
				<path fill="#FFFFFF" d="M586.49,86.523c-0.068,0-0.135,0-0.203-0.007c-1.402-0.116-2.449-1.341-2.34-2.749l3.066-38.48
					c0.109-1.408,1.348-2.441,2.75-2.34c1.4,0.109,2.447,1.34,2.34,2.748l-3.068,38.48C588.934,85.51,587.816,86.523,586.49,86.523z
					"/>
				<path fill="#FFFFFF" d="M383.824,39.369c-0.368,0-0.749-0.081-1.103-0.258c-1.265-0.605-1.803-2.129-1.197-3.395
					c0.646-1.36,2.769-6.156,2.769-10.863c0-1.415,1.143-2.558,2.551-2.558s2.551,1.143,2.551,2.558
					c0,5.781-2.503,11.455-3.265,13.061C385.688,38.826,384.776,39.369,383.824,39.369z"/>
				<path fill="#FFFFFF" d="M404.074,59.865c-0.81,0-1.605-0.389-2.095-1.096l-3.578-5.102c-0.803-1.149-0.524-2.741,0.626-3.551
					c1.163-0.81,2.748-0.53,3.558,0.633l3.57,5.095c0.81,1.156,0.531,2.748-0.625,3.558
					C405.081,59.709,404.577,59.865,404.074,59.865z"/>
				<path fill="#FFFFFF" d="M762.771,91.326c-0.598,0-1.195-0.205-1.686-0.633c-6.85-6.014-18.789-22.258-23.652-32.182
					c-0.619-1.266-0.102-2.789,1.164-3.408c1.264-0.619,2.795-0.102,3.422,1.163c4.543,9.292,16.08,25.019,22.434,30.597
					c1.061,0.926,1.17,2.537,0.238,3.599C764.188,91.033,763.48,91.326,762.771,91.326z"/>
				<path fill="#FFFFFF" d="M497.49,91.455c-0.429,0-0.864-0.109-1.259-0.334c-1.23-0.7-1.652-2.258-0.959-3.476
					c8.408-14.754,14.482-39.494,15.625-46.371c0.266-1.599,0.014-2.062,0-2.089c0,0-0.177-0.162-1.143-0.162H501.7
					c-1.407,0-2.551-1.137-2.551-2.552c0-1.407,1.144-2.551,2.551-2.551h8.055c2.23,0,3.932,0.667,5.033,1.973
					c1.231,1.442,1.605,3.476,1.143,6.224c-1.184,7.096-7.469,32.706-16.223,48.053C499.238,90.992,498.374,91.455,497.49,91.455z"
					/>
				<path fill="#FFFFFF" d="M516.754,91.455c-0.87,0-1.721-0.442-2.196-1.252c-5.483-9.278-15.68-37.467-17.04-47.119
					c-0.197-1.395,0.775-2.688,2.17-2.885s2.687,0.775,2.877,2.17c1.252,8.822,11.354,36.727,16.38,45.236
					c0.721,1.21,0.32,2.781-0.891,3.496C517.646,91.34,517.196,91.455,516.754,91.455z"/>
				<path fill="#FFFFFF" d="M582.457,38.132c-0.863,0-1.707-0.436-2.184-1.225l-5.66-9.319c-0.727-1.203-0.346-2.769,0.857-3.503
					c1.205-0.728,2.775-0.347,3.504,0.856l5.658,9.313c0.729,1.205,0.348,2.775-0.855,3.504
					C583.361,38.016,582.906,38.132,582.457,38.132z"/>
				<path fill="#FFFFFF" d="M650.793,68.456c-1.096,0-2.102-0.707-2.441-1.802c-0.742-2.402-2.797-5.98-3.729-6.803
					c-1.061-0.932-1.156-2.545-0.225-3.599c0.932-1.062,2.545-1.156,3.6-0.225c2.047,1.803,4.42,6.53,5.23,9.115
					c0.414,1.347-0.334,2.775-1.68,3.19C651.289,68.408,651.037,68.456,650.793,68.456z"/>
				<path fill="#FFFFFF" d="M635.393,77.17c-0.531,0-1.061-0.163-1.523-0.504c-1.129-0.843-1.361-2.435-0.523-3.57
					c3.156-4.252,6.516-13.203,6.516-21.441c0-1.408,1.143-2.551,2.551-2.551s2.545,1.143,2.545,2.551
					c0,9.428-3.783,19.455-7.518,24.482C636.943,76.816,636.176,77.17,635.393,77.17z"/>
				<path fill="#FFFFFF" d="M344.486,60.416c-1.415,0-2.558-1.143-2.558-2.551V39.023c0-1.974-1.367-3.708-2.925-3.708h-32.828
					c-1.81,0-3.51,2.313-3.51,3.708v18.842c0,1.408-1.137,2.551-2.545,2.551c-1.407,0-2.551-1.143-2.551-2.551V39.023
					c0-4.075,3.755-8.81,8.605-8.81h32.828c4.428,0,8.026,3.952,8.026,8.81v18.842C347.03,59.273,345.888,60.416,344.486,60.416z"/>
				<path fill="#FFFFFF" d="M423.372,57.967h-3.999c-5.204,0-8.564-3.354-8.564-8.543c0-2.442-0.007-4.564-0.014-6.537
					c-0.007-1.707-0.007-3.307-0.007-4.885c0-5.938,3.285-9.632,8.585-9.632h3.999c2.477,0,8.231,0.946,8.231,9.632v11.422
					C431.604,54.852,428.604,57.967,423.372,57.967z M419.373,33.473c-1.041,0-3.483,0-3.483,4.529c0,1.578,0.007,3.17,0.007,4.871
					c0.007,1.979,0.014,4.102,0.014,6.551c0,1.605,0.395,3.441,3.463,3.441h3.999c2.075,0,3.129-0.53,3.129-3.441V38.002
					c0-4.529-1.809-4.529-3.129-4.529H419.373z"/>
				<path fill="#FFFFFF" d="M415.89,92.652h-18.121c-7.102,0-11.34-3.605-11.34-9.639v-8.741c0-4.81,3.511-9.659,11.34-9.659h18.121
					c10.476,0,11.604,6.754,11.604,9.659v8.741C427.494,92.652,418.761,92.652,415.89,92.652z M397.769,69.722
					c-3.959,0-6.237,1.659-6.237,4.551v8.741c0,1.354,0,4.529,6.237,4.529h18.121c6.041,0,6.503-1.877,6.503-4.529v-8.741
					c0-1.477,0-4.551-6.503-4.551H397.769z"/>
				<path fill="#FFFFFF" d="M486.185,66.749h-14.203c-3.354,0-7.081-2.578-7.081-6.292v-3.51c0-2.429,1.932-4.66,5.163-5.973
					c0.796-0.326,1.884-0.748,3.122-1.218c-0.769-0.266-1.436-0.511-1.993-0.722c-4.224-1.592-6.026-4.156-6.026-8.563v-8.081
					c0-4.088,4.115-7.952,8.469-7.952h10.652c4.115,0,8.72,3.408,8.72,7.952v8.081c0,4.102-2.067,6.897-6.318,8.558
					c-0.449,0.176-0.946,0.367-1.49,0.57c1.333,0.477,2.599,0.933,3.707,1.361c2.605,0.993,4.415,3.455,4.415,5.986v3.51
					C493.32,64.219,489.627,66.749,486.185,66.749z M479.226,51.846c-2.999,1.121-5.979,2.237-7.625,2.918
					c-1.64,0.659-2.619,1.625-2.619,2.184v3.51c0,1.17,1.674,2.211,3,2.211h14.203c1.442,0,3.055-0.945,3.055-2.211v-3.51
					c0-0.824-0.803-1.797-1.789-2.178C485.138,53.893,482.158,52.852,479.226,51.846z M473.635,28.52
					c-2.218,0-4.388,2.218-4.388,3.871v8.081c0,2.721,0.728,3.741,3.388,4.741c1.401,0.537,3.775,1.347,6.285,2.211l0.252,0.088
					c2.285-0.857,4.482-1.68,6.026-2.292c2.681-1.041,3.728-2.374,3.728-4.748v-8.081c0-2.048-2.598-3.871-4.639-3.871H473.635z"/>
				<path fill="#FFFFFF" d="M488.879,92.795c-0.388,0-0.796-0.088-1.163-0.285c-0.559-0.279-13.693-7.027-15.836-8.225
					c-1.708-0.952-2.367-2.258-2.626-3.19c-0.449-1.659-0.048-3.544,1.245-5.761c0.782-1.361,1.441-2.518,2.047-3.578
					c0.564-1,1.082-1.905,1.612-2.803c1.605-2.762,2.19-6.088,2.19-7.652V21.718c0-1.408,1.143-2.551,2.551-2.551
					s2.551,1.143,2.551,2.551v39.583c0,2.625-0.891,6.802-2.891,10.223c-0.511,0.885-1.021,1.775-1.578,2.756
					c-0.612,1.074-1.272,2.244-2.075,3.611c-0.673,1.156-0.728,1.688-0.728,1.823c0.027,0.007,0.089,0.062,0.197,0.122
					c2.062,1.15,15.529,8.068,15.672,8.137c1.252,0.646,1.749,2.184,1.103,3.435C490.694,92.291,489.804,92.795,488.879,92.795z"/>
				<path fill="#FFFFFF" d="M496.218,53.186c-0.395,0-0.789-0.089-1.156-0.279c-1.258-0.633-1.762-2.17-1.122-3.422
					c3.897-7.68,6.313-17.258,6.313-25.005c0-1.408,1.143-2.544,2.558-2.544c1.408,0,2.551,1.136,2.551,2.544
					c0,8.632-2.571,18.835-6.87,27.312C498.041,52.675,497.144,53.186,496.218,53.186z"/>
				<path fill="#FFFFFF" d="M662.201,66.15c-4.477,0-8.115-3.646-8.115-8.115c0-3.238,1.855-5.822,2.428-6.544
					c0.721-0.905,1.266-2.319,1.266-2.973c0-0.395-0.457-1.537-1.027-2.354l-0.299-0.415c-0.945-1.319-2.367-3.292-2.367-5.884
					c0-4.476,3.639-8.115,8.115-8.115c4.475,0,8.115,3.64,8.115,8.115c0,2.489-1.633,4.659-2.512,5.829
					c-0.121,0.156-0.225,0.293-0.285,0.395c-0.367,0.564-0.693,1.83-0.693,2.429c0,0.64,0.477,2.272,1.047,3.054
					c1.641,2.238,2.443,4.354,2.443,6.463C670.316,62.504,666.676,66.15,662.201,66.15z M662.262,51.512
					c-0.455,1.225-1.123,2.36-1.762,3.163c-0.605,0.762-1.313,2.103-1.313,3.36c0,1.652,1.354,3.007,3.014,3.007
					c1.658,0,3.006-1.354,3.006-3.007c0-0.986-0.469-2.109-1.449-3.441C663.125,53.723,662.609,52.607,662.262,51.512z
					 M662.201,36.846c-1.66,0-3.014,1.354-3.014,3.021c0,0.945,0.74,1.979,1.4,2.897l0.348,0.49
					c0.189,0.266,0.795,1.177,1.279,2.347c0.244-0.816,0.592-1.619,1.014-2.272c0.115-0.176,0.285-0.414,0.496-0.7
					c0.449-0.585,1.482-1.973,1.482-2.762C665.207,38.199,663.859,36.846,662.201,36.846z"/>
				<path fill="#FFFFFF" d="M331.024,60.871c-2.925,0-5.292-1.537-5.938-2.006c-0.911-0.64-2.374-1.184-3.197-1.184
					c-0.544,0-1.748,0.455-2.578,0.966l-0.408,0.265c-1.197,0.775-3.02,1.959-5.326,1.959c-4.067,0-7.38-3.074-7.38-6.85
					s3.313-6.85,7.38-6.85c2.211,0,4.204,1.354,5.279,2.088c0.163,0.103,0.299,0.205,0.401,0.259
					c0.632,0.367,1.959,0.673,2.632,0.673c0.708,0,2.388-0.421,3.259-0.992c2.054-1.361,3.979-2.027,5.877-2.027
					c4.067,0,7.381,3.074,7.381,6.85S335.092,60.871,331.024,60.871z M324.12,53.953c1.278,0.381,2.51,1,3.34,1.592
					c0.837,0.605,2.204,1.246,3.564,1.246c1.816,0,3.292-1.246,3.292-2.77s-1.476-2.768-3.292-2.768
					c-1.075,0-2.259,0.441-3.626,1.346C326.48,53.213,325.263,53.668,324.12,53.953z M313.576,51.254
					c-1.816,0-3.299,1.244-3.299,2.768s1.482,2.77,3.299,2.77c1.103,0,2.163-0.694,3.109-1.307l0.455-0.299
					c0.177-0.103,1.259-0.762,2.585-1.191c-0.891-0.211-1.803-0.53-2.517-0.945c-0.17-0.096-0.388-0.238-0.64-0.414
					C315.855,52.158,314.535,51.254,313.576,51.254z"/>
				<path fill="#FFFFFF" d="M331.024,50.688c-2.925,0-5.292-1.53-5.938-1.993c-0.911-0.646-2.374-1.189-3.197-1.189
					c-0.551,0-1.728,0.441-2.578,0.973l-0.408,0.251c-1.197,0.782-3.02,1.959-5.326,1.959c-4.067,0-7.38-3.067-7.38-6.843
					c0-3.769,3.313-6.844,7.38-6.844c2.211,0,4.204,1.354,5.279,2.082c0.163,0.109,0.299,0.204,0.401,0.266
					c0.632,0.367,1.959,0.66,2.632,0.66c0.708,0,2.388-0.416,3.252-0.986c2.061-1.361,3.986-2.021,5.884-2.021
					c4.067,0,7.381,3.075,7.381,6.844C338.405,47.621,335.092,50.688,331.024,50.688z M324.12,43.777
					c1.278,0.375,2.51,1.007,3.34,1.599c0.83,0.599,2.204,1.238,3.564,1.238c1.816,0,3.292-1.245,3.292-2.769
					s-1.476-2.762-3.292-2.762c-1.075,0-2.259,0.441-3.633,1.34C326.48,43.029,325.263,43.498,324.12,43.777z M313.576,41.084
					c-1.816,0-3.299,1.238-3.299,2.762s1.482,2.769,3.299,2.769c1.103,0,2.163-0.694,3.109-1.306l0.455-0.293
					c0.184-0.109,1.266-0.769,2.585-1.204c-0.891-0.204-1.803-0.517-2.517-0.933c-0.17-0.102-0.388-0.244-0.64-0.414
					C315.855,41.975,314.535,41.084,313.576,41.084z"/>
			</g>
		</g>
		<g>
			<g>
				<path fill="#FFFFFF" d="M241.18,42.192c-3.319-8.224-9.441-15.57-16.788-20.169c-8.19-5.115-17.251-6.496-25.536-3.891
					c-16.883,5.319-30.161,18.02-41.779,39.99c-7.945,14.979-27.223,45.971-51.848,70.017c-3.374,3.292-7.618,7.407-12.189,11.36
					c-5.741-4.945-14.489-13.564-17.985-17.047c-5.184-5.184-10.584-11.652-15.768-14.184c-5.837-2.877-13.143-2.4-17.088,0.279
					c-5.55,3.796-7.482,8.598-7.523,14.727c-0.054,10.605,4.816,18.395,13.741,24.441c4.803,3.252,12.747,5.83,19.944,5.523
					c-9.945-0.918-15.85-6.769-19.087-10.203c-4.681-4.967-7.496-11.782-7.796-16.768c-0.299-5.089,1.578-10.225,7.021-11.625
					c6.897-1.77,13.591,6.727,19.862,13.135c4.966,5.081,14.054,13.891,18.094,17.155c-6.217,4.7-12.435,8.142-17.522,8.326
					c8.625,0.374,17.196-2.13,23.169-4.919c8.992,4.797,20.135,7.293,36.065,7.775c14.189,0.429,26.325-2.768,42.596-8.367
					c27.02-9.298,47.018-27.079,56.731-40.629C243.955,84.176,248.812,61.123,241.18,42.192z M226.69,38.676
					c0.204,0.021,0.367,0.074,0.544,0.109c6.681,19.971-16.924,54.936-36.568,70.642c-16.53,13.237-34.855,26.345-64.989,38.937
					c-2.096,0.189-4.245,0.115-6.055-0.123c37.739-15.924,65.615-37.541,86.294-65.111c12.462-16.611,13.455-34.406,11.061-43.412
					C220.392,38.553,223.63,38.207,226.69,38.676z M199.631,51.11c4.762-4.448,9.292-7.728,13.551-9.836
					c1.769,7.577,1.21,23.835-10.489,39.439c-17.496,23.325-42.597,47.426-88.117,67.2c-1.483-0.048-3.347-0.436-4.693-0.674
					c31.916-14.924,56.649-35.949,65.07-44.779c14.557-15.264,17.822-21.842,21.373-31.154
					C198.502,65.613,199.903,54.805,199.631,51.11z M100.263,143.724c23.985-14.938,61.548-46.596,85.683-77.39
					c3.414-4.36,5.414-6.707,8.625-10.061c-0.789,14.985-8,28.032-22.543,43.405c-10.979,11.612-26.202,23.04-40.691,31.964
					c-8.775,5.408-19.563,11.611-25.754,14.421C103.991,145.41,102.276,144.771,100.263,143.724z M220.487,103.229
					c-8.653,12.04-27.713,29.183-53.099,37.902c-1.837,0.64-9.211,3.456-12.911,4.245c17.21-7.34,31.821-15.829,41.793-23.686
					c15.074-11.87,31.195-31.869,39.032-50.535C233.316,81.4,228.337,92.277,220.487,103.229z M194.706,118.059
					c-14.938,11.781-37.249,23.855-55.493,29.658c-0.64,0.088-4.762,0.578-7.196,0.728c31.1-12.53,46.064-23.788,61.166-35.868
					c20.039-16.033,42.909-49.752,38.705-71.88c0.136,0.095,0.272,0.184,0.395,0.292c0.748,1.299,1.415,2.64,1.945,4.014
					c1.211,2.959,2.027,6.055,2.503,9.271C234.2,74.734,213.657,103.127,194.706,118.059z"/>
				<path fill="#FFFFFF" d="M86.454,144.935c-6.476-5.429-13.727-12.618-19.346-18.57c0.436-1.952,3.851-4.673,5.796-6.067
					c6.829,6.829,16.054,15.768,20.135,19.203C92.019,140.377,87.557,144.166,86.454,144.935z"/>
				<path fill="#FFFFFF" d="M232.051,40.764c1.878,9.293-1.918,21.265-7.047,31.938c-0.993,0.047-2.694-0.014-4.259-0.477
					c4.612-8.02,9.973-23.611,6.489-33.439C228.582,38.947,230.718,39.723,232.051,40.764z"/>
				<path fill="#FFFFFF" d="M216.977,39.717c2.585,8.973,0.245,24.087-5.728,35.025c-1.02,0.04-2.707-0.021-4.271-0.477
					c4.734-8.238,8.802-22.992,6.204-32.991C214.12,40.866,215.793,40.036,216.977,39.717z"/>
				<path fill="#FFFFFF" d="M199.631,51.11c-0.081,12.802-4.163,25.95-10.829,35.182c-1.17-0.252-2.938-0.878-4.231-1.83
					c3.511-5.476,9.605-16.509,10-28.188C195.196,55.491,198.107,52.267,199.631,51.11z"/>
				<path fill="#FFFFFF" d="M244.799,60.512c-0.231,12.291-2.286,18.332-5.497,25.848c-2.34-0.469-6.747-4.305-6.979-4.618
					c0.911-2.483,2.381-6.591,3.061-10.652c-0.462,1.026-4.407,9.462-5.4,10.89c-1.021,0.763-3.211,0.552-3.211-1.618
					c4.897-6.47,9.877-21.679,10.108-26.039c-1.456-7.837-3.715-11.64-4.599-13.333C238.445,44.506,243.628,52.505,244.799,60.512z"
					/>
				<path fill="#FFFFFF" d="M100.263,143.724c1.524,0.851,3.007,1.36,4.544,2.034c-0.23,1.688-0.734,4.503-0.095,7.428
					c-4.231-1.061-9.007-2.83-12.611-4.844C94.971,146.921,98.358,144.928,100.263,143.724z"/>
			</g>
		</g>
	</g>
</g>
<g id="圖層_2">
</g>
</svg>
